<mxfile host="app.diagrams.net" modified="2024-05-23T03:26:12.153Z" agent="Mozilla/5.0 (Windows NT 10.0; Win64; x64) AppleWebKit/537.36 (KHTML, like Gecko) Chrome/125.0.0.0 Safari/537.36" version="24.4.6" etag="YtL5r_hUTNWE_P2JnUBC" type="device">
  <diagram id="oxIKgWw8YZ_9rq9ooaAI" name="Trang-1">
    <mxGraphModel dx="1235" dy="636" grid="0" gridSize="10" guides="1" tooltips="1" connect="1" arrows="1" fold="1" page="1" pageScale="1" pageWidth="827" pageHeight="1169" math="0" shadow="0">
      <root>
        <mxCell id="0" />
        <mxCell id="1" parent="0" />
        <mxCell id="IZNuDjcCu0IXtKK-btFN-1" value="" style="rounded=0;whiteSpace=wrap;html=1;labelBackgroundColor=none;fillColor=none;dashed=1;container=1;pointerEvents=0;collapsible=0;recursiveResize=0;" vertex="1" parent="1">
          <mxGeometry x="100" y="70" width="691" height="373" as="geometry" />
        </mxCell>
        <mxCell id="IZNuDjcCu0IXtKK-btFN-10" value="" style="html=1;whiteSpace=wrap;shape=isoCube2;backgroundOutline=1;isoAngle=15;strokeWidth=3;" vertex="1" parent="IZNuDjcCu0IXtKK-btFN-1">
          <mxGeometry x="180" y="50" width="45" height="50" as="geometry" />
        </mxCell>
        <mxCell id="IZNuDjcCu0IXtKK-btFN-18" value="Confluent KSqlDB 01" style="text;html=1;align=center;verticalAlign=middle;whiteSpace=wrap;rounded=0;fontStyle=1" vertex="1" parent="IZNuDjcCu0IXtKK-btFN-1">
          <mxGeometry x="404.5" y="275" width="80" as="geometry" />
        </mxCell>
        <mxCell id="IZNuDjcCu0IXtKK-btFN-19" value="Confluent Schema Registry 01" style="text;html=1;align=center;verticalAlign=middle;whiteSpace=wrap;rounded=0;strokeWidth=1;fontStyle=1" vertex="1" parent="IZNuDjcCu0IXtKK-btFN-1">
          <mxGeometry x="534.5" y="113" width="110" height="30" as="geometry" />
        </mxCell>
        <mxCell id="IZNuDjcCu0IXtKK-btFN-20" value="Confluent Kafka Connnect 01" style="text;html=1;align=center;verticalAlign=middle;whiteSpace=wrap;rounded=0;fontStyle=1" vertex="1" parent="IZNuDjcCu0IXtKK-btFN-1">
          <mxGeometry x="379" y="110" width="110" height="30" as="geometry" />
        </mxCell>
        <mxCell id="IZNuDjcCu0IXtKK-btFN-21" value="Confluent Broker 01" style="text;html=1;align=center;verticalAlign=middle;whiteSpace=wrap;rounded=0;fontStyle=1" vertex="1" parent="IZNuDjcCu0IXtKK-btFN-1">
          <mxGeometry x="55" y="256" width="90" height="30" as="geometry" />
        </mxCell>
        <mxCell id="IZNuDjcCu0IXtKK-btFN-22" value="Confluent Control center 01" style="text;html=1;align=center;verticalAlign=middle;whiteSpace=wrap;rounded=0;fontStyle=1" vertex="1" parent="IZNuDjcCu0IXtKK-btFN-1">
          <mxGeometry x="534.5" y="264" width="110" height="30" as="geometry" />
        </mxCell>
        <mxCell id="IZNuDjcCu0IXtKK-btFN-23" value="Confluent Broker 02" style="text;html=1;align=center;verticalAlign=middle;whiteSpace=wrap;rounded=0;fontStyle=1" vertex="1" parent="IZNuDjcCu0IXtKK-btFN-1">
          <mxGeometry x="152.5" y="260" width="90" height="30" as="geometry" />
        </mxCell>
        <mxCell id="IZNuDjcCu0IXtKK-btFN-24" value="Confluent Broker 03" style="text;html=1;align=center;verticalAlign=middle;whiteSpace=wrap;rounded=0;fontStyle=1" vertex="1" parent="IZNuDjcCu0IXtKK-btFN-1">
          <mxGeometry x="255" y="260" width="90" height="30" as="geometry" />
        </mxCell>
        <mxCell id="IZNuDjcCu0IXtKK-btFN-25" value="Confluent Zookeeper 01" style="text;html=1;align=center;verticalAlign=middle;whiteSpace=wrap;rounded=0;fontStyle=1" vertex="1" parent="IZNuDjcCu0IXtKK-btFN-1">
          <mxGeometry x="60" y="110" width="80" height="30" as="geometry" />
        </mxCell>
        <mxCell id="IZNuDjcCu0IXtKK-btFN-26" value="Confluent Zookeeper 02" style="text;html=1;align=center;verticalAlign=middle;whiteSpace=wrap;rounded=0;fontStyle=1" vertex="1" parent="IZNuDjcCu0IXtKK-btFN-1">
          <mxGeometry x="162.5" y="110" width="80" height="30" as="geometry" />
        </mxCell>
        <mxCell id="IZNuDjcCu0IXtKK-btFN-27" value="Confluent Zookeeper 03" style="text;html=1;align=center;verticalAlign=middle;whiteSpace=wrap;rounded=0;fontStyle=1" vertex="1" parent="IZNuDjcCu0IXtKK-btFN-1">
          <mxGeometry x="260" y="110" width="80" height="30" as="geometry" />
        </mxCell>
        <mxCell id="IZNuDjcCu0IXtKK-btFN-52" value="&lt;b style=&quot;font-size: 14px;&quot;&gt;CONFLUENT PLATFORM&lt;/b&gt;" style="text;html=1;align=center;verticalAlign=middle;whiteSpace=wrap;rounded=0;fontSize=14;" vertex="1" parent="IZNuDjcCu0IXtKK-btFN-1">
          <mxGeometry x="161.75" y="346" width="367.5" height="30" as="geometry" />
        </mxCell>
        <mxCell id="IZNuDjcCu0IXtKK-btFN-107" value="" style="html=1;whiteSpace=wrap;shape=isoCube2;backgroundOutline=1;isoAngle=15;strokeWidth=3;" vertex="1" parent="IZNuDjcCu0IXtKK-btFN-1">
          <mxGeometry x="277.5" y="50" width="45" height="50" as="geometry" />
        </mxCell>
        <mxCell id="IZNuDjcCu0IXtKK-btFN-106" value="" style="html=1;whiteSpace=wrap;shape=isoCube2;backgroundOutline=1;isoAngle=15;strokeWidth=3;" vertex="1" parent="IZNuDjcCu0IXtKK-btFN-1">
          <mxGeometry x="80" y="50" width="45" height="50" as="geometry" />
        </mxCell>
        <mxCell id="IZNuDjcCu0IXtKK-btFN-111" value="" style="html=1;whiteSpace=wrap;shape=isoCube2;backgroundOutline=1;isoAngle=15;strokeWidth=3;" vertex="1" parent="IZNuDjcCu0IXtKK-btFN-1">
          <mxGeometry x="77.5" y="200" width="45" height="50" as="geometry" />
        </mxCell>
        <mxCell id="IZNuDjcCu0IXtKK-btFN-110" value="" style="html=1;whiteSpace=wrap;shape=isoCube2;backgroundOutline=1;isoAngle=15;strokeWidth=3;" vertex="1" parent="IZNuDjcCu0IXtKK-btFN-1">
          <mxGeometry x="180" y="200" width="45" height="50" as="geometry" />
        </mxCell>
        <mxCell id="IZNuDjcCu0IXtKK-btFN-109" value="" style="html=1;whiteSpace=wrap;shape=isoCube2;backgroundOutline=1;isoAngle=15;strokeWidth=3;" vertex="1" parent="IZNuDjcCu0IXtKK-btFN-1">
          <mxGeometry x="277.5" y="200" width="45" height="50" as="geometry" />
        </mxCell>
        <mxCell id="IZNuDjcCu0IXtKK-btFN-112" value="" style="html=1;whiteSpace=wrap;shape=isoCube2;backgroundOutline=1;isoAngle=15;strokeWidth=3;" vertex="1" parent="IZNuDjcCu0IXtKK-btFN-1">
          <mxGeometry x="422" y="53" width="45" height="50" as="geometry" />
        </mxCell>
        <mxCell id="IZNuDjcCu0IXtKK-btFN-113" value="" style="html=1;whiteSpace=wrap;shape=isoCube2;backgroundOutline=1;isoAngle=15;strokeWidth=3;" vertex="1" parent="IZNuDjcCu0IXtKK-btFN-1">
          <mxGeometry x="567" y="57" width="45" height="50" as="geometry" />
        </mxCell>
        <mxCell id="IZNuDjcCu0IXtKK-btFN-115" value="" style="html=1;whiteSpace=wrap;shape=isoCube2;backgroundOutline=1;isoAngle=15;strokeWidth=3;" vertex="1" parent="IZNuDjcCu0IXtKK-btFN-1">
          <mxGeometry x="422" y="203" width="45" height="50" as="geometry" />
        </mxCell>
        <mxCell id="IZNuDjcCu0IXtKK-btFN-114" value="" style="html=1;whiteSpace=wrap;shape=isoCube2;backgroundOutline=1;isoAngle=15;strokeWidth=3;" vertex="1" parent="IZNuDjcCu0IXtKK-btFN-1">
          <mxGeometry x="567" y="206" width="45" height="50" as="geometry" />
        </mxCell>
      </root>
    </mxGraphModel>
  </diagram>
</mxfile>
